<?xml version="1.0" encoding="UTF-8"?>
<svg id="Layer_1" xmlns="http://www.w3.org/2000/svg" version="1.1" viewBox="0 0 1838.61 415.51">
  <!-- Generator: Adobe Illustrator 30.2.1, SVG Export Plug-In . SVG Version: 2.1.1 Build 1)  -->
  <defs>
    <style>
      .st0 {
        fill: #fff;
      }

      .st1 {
        fill: #7bbde1;
      }
    </style>
  </defs>
  <g id="PM-black_bold">
    <g>
      <g>
        <path class="st1" d="M372.97,411.91l12.95-6.48c7.96-16.93,11.94-24.89,18.92-36.34,20.91-34.35,162.33-233.53,254.93-308.71,16.94-13.44,26.39-20.42,41.33-28.88-.49,31.87-7.47,49.3-47.8,157.35l-8.96,22.9c-22.4,59.75-39.34,112.03-39.34,121.5,0,3.48,2.49,5.47,6.47,5.47,11.45,0,39.83-11.96,48.8-21.91,11.95-13.45,56.76-79.18,66.22-92.61,33.85-46.3,68.21-93.1,104.57-137.92-1.51,8.47-2.5,13.44-5.98,27.88-13.45,64.74-18.92,100.59-18.92,130.96,0,38.84,11.45,71.7,30.87,89.13,9.46,7.97,16.93,11.95,31.37,14.94l48.3-20.91c-43.32-15.43-62.74-49.79-62.74-109.54,0-31.86,5.98-74.69,15.94-113.52,4.47-17.92,6.96-32.37,6.96-42.32,0-3.99-1.49-6.48-3.98-6.48s-22.4,5.97-38.83,13.94c-13.45,6.48-17.93,9.47-28.39,22.41l-18.41,21.91c-11.96,14.43-14.95,17.91-40.83,51.77-19.92,25.9-39.84,52.28-59.75,78.19l-27.38,35.84c1.99-13.44,11.95-40.32,26.4-70.7,30.37-64.23,62.23-160.33,62.23-189.21,0-11.94-3.48-17.42-10.95-17.42-5.48,0-10.45.99-18.92,4.48-38.33,14.93-52.28,23.4-79.17,47.8-68.22,62.73-208.63,234.02-276.34,349.54l10.46,6.97Z"/>
        <path class="st1" d="M372.75,415.51l-14.42-9.61,1.49-2.54c67.35-114.88,206.57-285.55,276.92-350.26,27.31-24.77,41.54-33.37,80.15-48.41,8.3-3.42,13.75-4.69,20.05-4.69,9.34,0,14.08,6.91,14.08,20.54,0,28.87-31.56,125.03-62.53,190.54-10.16,21.37-18.2,41.2-22.64,55.62l18.32-23.98c9.96-12.95,19.92-26.02,29.88-39.09,9.96-13.08,19.93-26.14,29.89-39.11,24.69-32.3,28.66-37.09,39.26-49.88l20.06-23.91c10.78-13.34,15.5-16.5,29.43-23.21,15.78-7.66,36.63-14.25,40.19-14.25,3.27,0,7.09,2.52,7.09,9.6,0,9.86-2.38,24.35-7.05,43.08-9.92,38.68-15.85,80.83-15.85,112.76,0,58.79,18.71,91.66,60.67,106.61l7.46,2.66-56.48,24.45-.96-.2c-14.09-2.91-22.36-6.85-32.75-15.61-20.35-18.26-31.98-51.59-31.98-91.51,0-29.65,4.97-64.09,18.99-131.59,1.66-6.87,2.74-11.59,3.58-15.5-34.94,43.7-68.92,90.17-96.6,128.02-1.9,2.71-5.32,7.65-9.64,13.88-16.48,23.81-47.15,68.13-56.77,78.96-9.61,10.66-39.11,22.96-51.13,22.96-5.74,0-9.6-3.45-9.6-8.59,0-11.25,19.89-70.18,39.54-122.59l13.56-35.26c33.76-90.4,41.59-111.36,42.83-138.39-12.08,7.18-21.17,13.97-36.11,25.81-89.55,72.71-230.02,268.17-254.2,307.89-6.75,11.1-10.61,18.74-18.75,36.05l-.46.98-15.54,7.77ZM366.7,403.98l6.5,4.33,10.36-5.19c7.94-16.85,11.83-24.52,18.61-35.65,24.29-39.9,165.48-236.32,255.63-309.51,17.16-13.61,26.73-20.66,41.76-29.17l4.74-2.69-.08,5.45c-.49,31.15-7.03,48.7-43.38,146.03l-13.59,35.31c-24.49,65.31-39.13,112.49-39.13,120.36,0,.7,0,2.35,3.36,2.35,10.51,0,38.17-11.66,46.48-20.88,9.35-10.53,39.88-54.65,56.29-78.35,4.33-6.26,7.76-11.21,9.71-13.97,29.83-40.79,66.9-91.51,104.69-138.1l7.61-9.39-2.12,11.9c-1.49,8.39-2.45,13.28-6.01,28.06-13.9,66.95-18.84,101.04-18.84,130.23,0,37.59,11.16,70.04,29.84,86.8,8.15,6.87,14.98,11,28.95,14l40.45-17.51c-39.31-16.98-57.69-52.07-57.69-109.68,0-32.43,5.99-75.16,16.04-114.29,4.55-18.22,6.86-32.2,6.86-41.55,0-2.38-.65-3.27-.8-3.36-2.19.16-21.27,5.75-37.52,13.63-13.14,6.33-17.24,9.08-27.34,21.57l-20.07,23.92c-10.55,12.73-14.49,17.49-39.11,49.7-9.96,12.95-19.92,26.02-29.88,39.09-9.96,13.08-19.93,26.14-29.89,39.11l-34.73,45.44,1.78-11.96c2.06-13.9,12.28-41.33,26.67-71.58,30.67-64.88,61.93-159.7,61.93-187.87,0-14.3-5.3-14.3-7.84-14.3-4.69,0-9.1.7-17.74,4.25-37.77,14.72-51.66,23.1-78.26,47.22-69.51,63.93-206.61,231.87-274.25,346.27Z"/>
      </g>
      <g>
        <path class="st1" d="M372.97,411.91l12.95-6.48c7.96-16.93,11.94-24.89,18.92-36.34,20.91-34.35,162.33-233.53,254.93-308.71,16.94-13.44,26.39-20.42,41.33-28.88-.49,31.87-7.47,49.3-47.8,157.35l-8.96,22.9c-22.4,59.75-39.34,112.03-39.34,121.5,0,3.48,2.49,5.47,6.47,5.47,11.45,0,39.83-11.96,48.8-21.91,11.95-13.45,56.76-79.18,66.22-92.61,33.85-46.3,68.21-93.1,104.57-137.92-1.51,8.47-2.5,13.44-5.98,27.88-13.45,64.74-18.92,100.59-18.92,130.96,0,38.84,11.45,71.7,30.87,89.13,9.46,7.97,16.93,11.95,31.37,14.94l48.3-20.91c-43.32-15.43-62.74-49.79-62.74-109.54,0-31.86,5.98-74.69,15.94-113.52,4.47-17.92,6.96-32.37,6.96-42.32,0-3.99-1.49-6.48-3.98-6.48s-22.4,5.97-38.83,13.94c-13.45,6.48-17.93,9.47-28.39,22.41l-18.41,21.91c-11.96,14.43-14.95,17.91-40.83,51.77-19.92,25.9-39.84,52.28-59.75,78.19l-27.38,35.84c1.99-13.44,11.95-40.32,26.4-70.7,30.37-64.23,62.23-160.33,62.23-189.21,0-11.94-3.48-17.42-10.95-17.42-5.48,0-10.45.99-18.92,4.48-38.33,14.93-52.28,23.4-79.17,47.8-68.22,62.73-208.63,234.02-276.34,349.54l10.46,6.97Z"/>
        <path class="st1" d="M372.75,415.51l-14.42-9.61,1.49-2.54c67.35-114.88,206.57-285.55,276.92-350.26,27.31-24.77,41.54-33.37,80.15-48.41,8.3-3.42,13.75-4.69,20.05-4.69,9.34,0,14.08,6.91,14.08,20.54,0,28.87-31.56,125.03-62.53,190.54-10.16,21.37-18.2,41.2-22.64,55.62l18.32-23.98c9.96-12.95,19.92-26.02,29.88-39.09,9.96-13.08,19.93-26.14,29.89-39.11,24.69-32.3,28.66-37.09,39.26-49.88l20.06-23.91c10.78-13.34,15.5-16.5,29.43-23.21,15.78-7.66,36.63-14.25,40.19-14.25,3.27,0,7.09,2.52,7.09,9.6,0,9.86-2.38,24.35-7.05,43.08-9.92,38.68-15.85,80.83-15.85,112.76,0,58.79,18.71,91.66,60.67,106.61l7.46,2.66-56.48,24.45-.96-.2c-14.09-2.91-22.36-6.85-32.75-15.61-20.35-18.26-31.98-51.59-31.98-91.51,0-29.65,4.97-64.09,18.99-131.59,1.66-6.87,2.74-11.59,3.58-15.5-34.94,43.7-68.92,90.17-96.6,128.02-1.9,2.71-5.32,7.65-9.64,13.88-16.48,23.81-47.15,68.13-56.77,78.96-9.61,10.66-39.11,22.96-51.13,22.96-5.74,0-9.6-3.45-9.6-8.59,0-11.25,19.89-70.18,39.54-122.59l13.56-35.26c33.76-90.4,41.59-111.36,42.83-138.39-12.08,7.18-21.17,13.97-36.11,25.81-89.55,72.71-230.02,268.17-254.2,307.89-6.75,11.1-10.61,18.74-18.75,36.05l-.46.98-15.54,7.77ZM366.7,403.98l6.5,4.33,10.36-5.19c7.94-16.85,11.83-24.52,18.61-35.65,24.29-39.9,165.48-236.32,255.63-309.51,17.16-13.61,26.73-20.66,41.76-29.17l4.74-2.69-.08,5.45c-.49,31.15-7.03,48.7-43.38,146.03l-13.59,35.31c-24.49,65.31-39.13,112.49-39.13,120.36,0,.7,0,2.35,3.36,2.35,10.51,0,38.17-11.66,46.48-20.88,9.35-10.53,39.88-54.65,56.29-78.35,4.33-6.26,7.76-11.21,9.71-13.97,29.83-40.79,66.9-91.51,104.69-138.1l7.61-9.39-2.12,11.9c-1.49,8.39-2.45,13.28-6.01,28.06-13.9,66.95-18.84,101.04-18.84,130.23,0,37.59,11.16,70.04,29.84,86.8,8.15,6.87,14.98,11,28.95,14l40.45-17.51c-39.31-16.98-57.69-52.07-57.69-109.68,0-32.43,5.99-75.16,16.04-114.29,4.55-18.22,6.86-32.2,6.86-41.55,0-2.38-.65-3.27-.8-3.36-2.19.16-21.27,5.75-37.52,13.63-13.14,6.33-17.24,9.08-27.34,21.57l-20.07,23.92c-10.55,12.73-14.49,17.49-39.11,49.7-9.96,12.95-19.92,26.02-29.88,39.09-9.96,13.08-19.93,26.14-29.89,39.11l-34.73,45.44,1.78-11.96c2.06-13.9,12.28-41.33,26.67-71.58,30.67-64.88,61.93-159.7,61.93-187.87,0-14.3-5.3-14.3-7.84-14.3-4.69,0-9.1.7-17.74,4.25-37.77,14.72-51.66,23.1-78.26,47.22-69.51,63.93-206.61,231.87-274.25,346.27Z"/>
      </g>
      <g>
        <path class="st0" d="M1070.34,230.71c-6.74,9.48-16.08,14.29-27.82,14.29-27.7,0-40.33-21.93-40.33-42.29,0-25.67,16.97-44.28,40.33-44.28,10.07,0,19.86,4.61,25.54,12.06l2.15,2.78,18.84-14.38-2.11-2.78c-9.34-12.3-25.79-19.65-43.94-19.65-38.13,0-64.73,27.25-64.73,66.25,0,30.88,24.41,64.24,63.88,64.24,29.85,0,44.67-18.36,47.35-22.03l2.03-2.78-19.13-14.38-2.07,2.94Z"/>
        <rect class="st0" x="906.24" y="139.44" width="22.9" height="124.55"/>
        <polygon class="st0" points="1210.77 188.24 1156.88 188.24 1156.88 139.44 1133.93 139.44 1133.93 263.99 1156.88 263.99 1156.88 210.21 1210.77 210.21 1210.77 263.99 1233.71 263.99 1233.71 139.44 1210.77 139.44 1210.77 188.24"/>
        <polygon class="st0" points="1761.14 228.5 1701.45 139.44 1675.17 139.44 1675.17 263.99 1698.08 263.99 1698.08 174.77 1757.41 262.45 1758.46 263.99 1784.05 263.99 1784.05 139.44 1761.14 139.44 1761.14 228.5"/>
        <rect class="st0" x="1290.12" y="139.44" width="22.9" height="124.55"/>
        <path class="st0" d="M1583.89,139.44h-19.01l-52.75,119.61-2.15,4.93h26.31l11.65-29.06h51.17l11.82,29.06h26.27l-52.43-122.42-.89-2.13ZM1590.46,213.98h-34.03l17.14-41.58,16.89,41.58Z"/>
        <path class="st0" d="M1425.87,213.19h26.07v27.05c-6.5,3.05-15.59,4.77-25.38,4.77-24.04,0-42.15-18.6-42.15-43.29s17.18-43.29,40.81-43.29c12.43,0,22.01,3.63,30.09,11.45l2.56,2.48,16-17.16-2.31-2.4c-10.76-11.15-25.5-16.35-46.34-16.35-36.91,0-64.73,28.06-64.73,65.26s27.29,65.24,66.4,65.24c13.81,0,33.5-3.49,46.29-11.31l1.66-1.02v-63.39h-48.97v21.95Z"/>
        <path class="st0" d="M204.47,215.02c0,13.85-6.82,30.01-26.07,30.01s-26.03-16.16-26.03-30.01v-75.53h-22.9v78.03c0,28.67,20.59,49.48,48.93,49.48s48.97-20.81,48.97-49.48v-78.03h-22.9v75.53Z"/>
        <path class="st0" d="M44.79,139.48H0v124.53h22.9v-51.78h21.89c38.21,0,41.18-27.84,41.18-36.37s-2.96-36.39-41.18-36.39ZM22.9,160.46h17.42c15.23,0,21.73,4.61,21.73,15.41s-6.5,15.39-21.73,15.39h-17.42v-30.8Z"/>
        <path class="st0" d="M367.64,175.87c0-8.53-2.96-36.39-41.18-36.39h-44.83v124.53h22.94v-51.78h12.22l29.89,51.78h28.22l-33.95-54.6c15.76-4,26.68-17.38,26.68-33.54ZM304.57,160.46h17.42c15.23,0,21.73,4.61,21.73,15.41s-6.5,15.39-21.73,15.39h-17.42v-30.8Z"/>
        <polygon class="st0" points="439.15 211.4 494.95 211.4 494.95 189.43 439.15 189.43 439.15 161.45 499.09 161.45 499.09 139.48 416.25 139.48 416.25 264.01 502.05 264.01 502.05 242.06 439.15 242.06 439.15 211.4"/>
        <path class="st0" d="M1829.05,150.18c0-4.01-2.37-5.99-7.34-5.99h-7.92v21.01h3.19v-9.03h3.43l5.71,9.03h3.42l-6.04-9.26c3.15-.35,5.55-1.94,5.55-5.76ZM1820.25,153.57h-3.27v-6.77h4.19c2.17,0,4.69.35,4.69,3.24,0,3.39-2.75,3.53-5.61,3.53Z"/>
        <path class="st0" d="M1820.66,136.77c-9.81,0-17.97,7.72-17.97,17.96s8.16,17.95,17.97,17.95,17.95-7.71,17.95-17.95-8.2-17.96-17.95-17.96ZM1820.66,170.07c-8.26,0-14.78-6.65-14.78-15.34s6.52-15.35,14.78-15.35,14.77,6.66,14.77,15.35-6.57,15.34-14.77,15.34Z"/>
      </g>
    </g>
  </g>
</svg>